# xmcd CD database file
#
# Track frame offsets:
#	150
#	12817
#	24110
#	39537
#	54175
#	72930
#	87350
#	101455
#	114680
#	127527
#	139762
#	150577
#	164032
#	175072
#	190455
#	204842
#	213707
#	225782
#	241487
#	254020
#	268077
#	280585
#	294440
#	306267
#	320560
#
# Disc length: 4431 seconds
#
# Revision: 10
# Processed by: cddbd v1.5.2PL0 Copyright (c) Steve Scherf et al.
# Submitted via: CDex 1.70beta2
#
DISCID=58114d19
DTITLE=Various Artist - The Ultimate Gershwin 4 - Jazz Bands
DYEAR=1996
DGENRE=Jazz
TTITLE0=Chick Webb - Liza
TTITLE1=Louis Armstrong - Love Walked In
TTITLE2=Benny Goodman Quartet - It's Wonderful
TTITLE3=Count Basie - Lady Be Good
TTITLE4=Sidney Bechet Quintet - Summertime
TTITLE5=Quintette Du Hot Club De France - The Man I Love
TTITLE6=Artie Shaw - Lady Be Good
TTITLE7=Cab Calloway - Do It Again
TTITLE8=Quintette Du Hot Club De France - The Man I Love
TTITLE9=Doris Rhodes and Joe Sullivan Sentet - The Lorelei
TTITLE10=Felix Mendelssohn and Hawaiian Serenaders - I Got Rhythm
TTITLE11=Teddy Wilson - Lady Be Good
TTITLE12=Sidney Bechet and New Orleans Feetwarmers - Lady Be Good
TTITLE13=Metronome All Star Leaders - I Got Rhythm
TTITLE14=Oscar Aleman - Tengo Ritmo
TTITLE15=Art Tatum Trio - Liza
TTITLE16=Coleman Hawkins Quintet - It's Wonderful
TTITLE17=Joe Bushkin Sextet - Lady Be Good
TTITLE18=Eddie Condon - It's Wonderful
TTITLE19=Artie Shaw - It's Wonderful
TTITLE20=Coleman Hawkins - Someone To Watch Over Me
TTITLE21=Artie Shaw - A Foggy Day
TTITLE22=Eddie Condon - Lady Be Good
TTITLE23=Ike Quebec Swing Seven - Someone To Watch Over Me
TTITLE24=Bud Powell Trio - Somebody Loves Me
EXTD=YEAR: 1996
EXTT0=
EXTT1=
EXTT2=
EXTT3=
EXTT4=
EXTT5=
EXTT6=
EXTT7=
EXTT8=
EXTT9=
EXTT10=
EXTT11=
EXTT12=
EXTT13=
EXTT14=
EXTT15=
EXTT16=
EXTT17=
EXTT18=
EXTT19=
EXTT20=
EXTT21=
EXTT22=
EXTT23=
EXTT24=
PLAYORDER=
